<mxfile host="app.diagrams.net" modified="2023-09-13T11:33:34.246Z" agent="Mozilla/5.0 (X11; Linux x86_64; rv:102.0) Gecko/20100101 Firefox/102.0" etag="iZZaaUOotM5WCxMeoQhi" version="21.7.2" type="device">
  <diagram name="Page-1" id="BYfRRvmNnbikUDb4XGmU">
    <mxGraphModel dx="2280" dy="762" grid="1" gridSize="10" guides="1" tooltips="1" connect="1" arrows="1" fold="1" page="1" pageScale="1" pageWidth="850" pageHeight="1100" math="0" shadow="0">
      <root>
        <mxCell id="0" />
        <mxCell id="1" parent="0" />
        <mxCell id="-R0mdOg1v83Fvph0Vuq2-1" value="" style="rounded=0;whiteSpace=wrap;html=1;sketch=1;hachureGap=4;jiggle=2;curveFitting=1;fontFamily=Architects Daughter;fontSource=https%3A%2F%2Ffonts.googleapis.com%2Fcss%3Ffamily%3DArchitects%2BDaughter;fontSize=20;fillStyle=solid;strokeColor=#00592D;" vertex="1" parent="1">
          <mxGeometry x="-230" y="270" width="500" height="610" as="geometry" />
        </mxCell>
        <mxCell id="-R0mdOg1v83Fvph0Vuq2-2" value="User" style="text;html=1;strokeColor=none;fillColor=none;align=center;verticalAlign=middle;whiteSpace=wrap;rounded=0;fontSize=20;fontFamily=Architects Daughter;" vertex="1" parent="1">
          <mxGeometry x="-50" y="240" width="140" height="30" as="geometry" />
        </mxCell>
        <mxCell id="-R0mdOg1v83Fvph0Vuq2-3" value="" style="rounded=0;whiteSpace=wrap;html=1;sketch=1;hachureGap=4;jiggle=2;curveFitting=1;fontFamily=Architects Daughter;fontSource=https%3A%2F%2Ffonts.googleapis.com%2Fcss%3Ffamily%3DArchitects%2BDaughter;fontSize=20;strokeColor=#8C7738;" vertex="1" parent="1">
          <mxGeometry x="470" y="270" width="550" height="610" as="geometry" />
        </mxCell>
        <mxCell id="-R0mdOg1v83Fvph0Vuq2-4" value="Repository" style="text;html=1;strokeColor=none;fillColor=none;align=center;verticalAlign=middle;whiteSpace=wrap;rounded=0;fontSize=20;fontFamily=Architects Daughter;" vertex="1" parent="1">
          <mxGeometry x="675" y="240" width="140" height="30" as="geometry" />
        </mxCell>
        <mxCell id="-R0mdOg1v83Fvph0Vuq2-7" value="" style="shape=flexArrow;endArrow=classic;startArrow=classic;html=1;rounded=0;sketch=1;hachureGap=4;jiggle=2;curveFitting=1;fontFamily=Architects Daughter;fontSource=https%3A%2F%2Ffonts.googleapis.com%2Fcss%3Ffamily%3DArchitects%2BDaughter;fontSize=16;exitX=1;exitY=0.5;exitDx=0;exitDy=0;entryX=0;entryY=0.5;entryDx=0;entryDy=0;" edge="1" parent="1" source="-R0mdOg1v83Fvph0Vuq2-1" target="-R0mdOg1v83Fvph0Vuq2-3">
          <mxGeometry width="100" height="100" relative="1" as="geometry">
            <mxPoint x="320" y="530" as="sourcePoint" />
            <mxPoint x="420" y="430" as="targetPoint" />
          </mxGeometry>
        </mxCell>
        <mxCell id="-R0mdOg1v83Fvph0Vuq2-8" value="HTTPS Request" style="text;html=1;strokeColor=none;fillColor=none;align=center;verticalAlign=middle;whiteSpace=wrap;rounded=0;fontSize=20;fontFamily=Architects Daughter;" vertex="1" parent="1">
          <mxGeometry x="340" y="520" width="60" height="30" as="geometry" />
        </mxCell>
        <mxCell id="-R0mdOg1v83Fvph0Vuq2-13" style="edgeStyle=orthogonalEdgeStyle;rounded=0;sketch=1;hachureGap=4;jiggle=2;curveFitting=1;orthogonalLoop=1;jettySize=auto;html=1;exitX=0.5;exitY=0;exitDx=0;exitDy=0;exitPerimeter=0;entryX=0.5;entryY=1;entryDx=0;entryDy=0;fontFamily=Architects Daughter;fontSource=https%3A%2F%2Ffonts.googleapis.com%2Fcss%3Ffamily%3DArchitects%2BDaughter;fontSize=16;" edge="1" parent="1" source="-R0mdOg1v83Fvph0Vuq2-9" target="-R0mdOg1v83Fvph0Vuq2-12">
          <mxGeometry relative="1" as="geometry" />
        </mxCell>
        <mxCell id="-R0mdOg1v83Fvph0Vuq2-9" value="paket-files/" style="shape=cylinder3;whiteSpace=wrap;html=1;boundedLbl=1;backgroundOutline=1;size=15;sketch=1;hachureGap=4;jiggle=2;curveFitting=1;fontFamily=Architects Daughter;fontSource=https%3A%2F%2Ffonts.googleapis.com%2Fcss%3Ffamily%3DArchitects%2BDaughter;fontSize=20;fillColor=#dae8fc;strokeColor=#6c8ebf;" vertex="1" parent="1">
          <mxGeometry x="520" y="630" width="157.5" height="80" as="geometry" />
        </mxCell>
        <mxCell id="-R0mdOg1v83Fvph0Vuq2-10" value="&lt;font style=&quot;font-size: 21px;&quot; data-font-src=&quot;https://fonts.googleapis.com/css?family=Monospace&quot; face=&quot;Monospace&quot;&gt;&lt;font style=&quot;font-size: 21px;&quot; color=&quot;#636363&quot;&gt;&lt;u&gt;&lt;font style=&quot;font-size: 21px;&quot; color=&quot;#000000&quot;&gt;File Structure&lt;/font&gt;&lt;/u&gt;&lt;font style=&quot;font-size: 21px;&quot;&gt;&lt;br&gt;&lt;/font&gt;&lt;/font&gt;&lt;/font&gt;&lt;div style=&quot;font-size: 21px;&quot;&gt;&lt;font style=&quot;font-size: 21px;&quot; data-font-src=&quot;https://fonts.googleapis.com/css?family=Monospace&quot; size=&quot;1&quot; face=&quot;Monospace&quot;&gt;&lt;font style=&quot;font-size: 14px;&quot; color=&quot;#636363&quot;&gt;paket-example-host/&lt;/font&gt;&lt;/font&gt;&lt;font style=&quot;font-size: 14px;&quot; data-font-src=&quot;https://fonts.googleapis.com/css?family=Monospace&quot; face=&quot;Monospace&quot;&gt;&lt;/font&gt;&lt;/div&gt;&lt;div&gt;&lt;font style=&quot;font-size: 14px;&quot; data-font-src=&quot;https://fonts.googleapis.com/css?family=Monospace&quot; face=&quot;Monospace&quot;&gt;├── &lt;font color=&quot;#1a5fb4&quot;&gt;paket-files/&lt;/font&gt;&lt;/font&gt;&lt;/div&gt;&lt;font style=&quot;font-size: 14px;&quot; data-font-src=&quot;https://fonts.googleapis.com/css?family=Monospace&quot; face=&quot;Monospace&quot;&gt;│&amp;nbsp;&amp;nbsp; ├── another-package_2.0.0.paket&lt;br&gt;│&amp;nbsp;&amp;nbsp; └── app_1.0.0.paket&lt;br&gt;├── &lt;font color=&quot;#990099&quot;&gt;PaketList.toml&lt;/font&gt;&lt;br&gt;└── &lt;b&gt;&lt;font color=&quot;#2DA84A&quot;&gt;paket-server&lt;/font&gt;&lt;/b&gt;&lt;/font&gt;" style="text;html=1;align=left;verticalAlign=top;whiteSpace=wrap;rounded=0;fontSize=20;fontFamily=Courier New;fillColor=#fff2cc;strokeColor=#d6b656;sketch=1;curveFitting=1;jiggle=2;perimeterSpacing=0;glass=0;spacingLeft=7;spacingBottom=2;" vertex="1" parent="1">
          <mxGeometry x="690" y="280" width="320" height="200" as="geometry" />
        </mxCell>
        <mxCell id="-R0mdOg1v83Fvph0Vuq2-12" value="paket-server" style="rounded=1;whiteSpace=wrap;html=1;sketch=1;hachureGap=4;jiggle=2;curveFitting=1;fontFamily=Architects Daughter;fontSource=https%3A%2F%2Ffonts.googleapis.com%2Fcss%3Ffamily%3DArchitects%2BDaughter;fontSize=20;fillColor=#d5e8d4;strokeColor=#82b366;fontStyle=1" vertex="1" parent="1">
          <mxGeometry x="470" y="527.5" width="160" height="35" as="geometry" />
        </mxCell>
        <mxCell id="-R0mdOg1v83Fvph0Vuq2-16" style="edgeStyle=orthogonalEdgeStyle;rounded=0;sketch=1;hachureGap=4;jiggle=2;curveFitting=1;orthogonalLoop=1;jettySize=auto;html=1;exitX=0.5;exitY=0;exitDx=0;exitDy=0;exitPerimeter=0;entryX=1;entryY=0.5;entryDx=0;entryDy=0;fontFamily=Architects Daughter;fontSource=https%3A%2F%2Ffonts.googleapis.com%2Fcss%3Ffamily%3DArchitects%2BDaughter;fontSize=16;" edge="1" parent="1" source="-R0mdOg1v83Fvph0Vuq2-14" target="-R0mdOg1v83Fvph0Vuq2-12">
          <mxGeometry relative="1" as="geometry" />
        </mxCell>
        <mxCell id="-R0mdOg1v83Fvph0Vuq2-14" value="PaketList.toml" style="shape=note;whiteSpace=wrap;html=1;backgroundOutline=1;darkOpacity=0.05;sketch=1;hachureGap=4;jiggle=2;curveFitting=1;fontFamily=Architects Daughter;fontSource=https%3A%2F%2Ffonts.googleapis.com%2Fcss%3Ffamily%3DArchitects%2BDaughter;fontSize=20;fillColor=#e1d5e7;strokeColor=#9673a6;" vertex="1" parent="1">
          <mxGeometry x="720" y="623" width="180" height="87" as="geometry" />
        </mxCell>
        <mxCell id="-R0mdOg1v83Fvph0Vuq2-22" style="edgeStyle=orthogonalEdgeStyle;rounded=0;sketch=1;hachureGap=4;jiggle=2;curveFitting=1;orthogonalLoop=1;jettySize=auto;html=1;exitX=0.5;exitY=1;exitDx=0;exitDy=0;entryX=0.5;entryY=0;entryDx=0;entryDy=0;entryPerimeter=0;fontFamily=Architects Daughter;fontSource=https%3A%2F%2Ffonts.googleapis.com%2Fcss%3Ffamily%3DArchitects%2BDaughter;fontSize=16;startArrow=classic;startFill=1;" edge="1" parent="1" source="-R0mdOg1v83Fvph0Vuq2-20" target="-R0mdOg1v83Fvph0Vuq2-21">
          <mxGeometry relative="1" as="geometry" />
        </mxCell>
        <mxCell id="-R0mdOg1v83Fvph0Vuq2-20" value="paket-cli" style="rounded=1;whiteSpace=wrap;html=1;sketch=1;hachureGap=4;jiggle=2;curveFitting=1;fontFamily=Architects Daughter;fontSource=https%3A%2F%2Ffonts.googleapis.com%2Fcss%3Ffamily%3DArchitects%2BDaughter;fontSize=20;fillColor=#d5e8d4;strokeColor=#82b366;fontStyle=1" vertex="1" parent="1">
          <mxGeometry x="110" y="527.5" width="160" height="35" as="geometry" />
        </mxCell>
        <mxCell id="-R0mdOg1v83Fvph0Vuq2-21" value="User Storage (/usr/bin etc.)" style="shape=cylinder3;whiteSpace=wrap;html=1;boundedLbl=1;backgroundOutline=1;size=15;sketch=1;hachureGap=4;jiggle=2;curveFitting=1;fontFamily=Architects Daughter;fontSource=https%3A%2F%2Ffonts.googleapis.com%2Fcss%3Ffamily%3DArchitects%2BDaughter;fontSize=20;fillColor=#dae8fc;strokeColor=#6c8ebf;" vertex="1" parent="1">
          <mxGeometry x="-175" y="680" width="380" height="120" as="geometry" />
        </mxCell>
        <mxCell id="-R0mdOg1v83Fvph0Vuq2-25" style="edgeStyle=orthogonalEdgeStyle;rounded=0;sketch=1;hachureGap=4;jiggle=2;curveFitting=1;orthogonalLoop=1;jettySize=auto;html=1;exitX=0.5;exitY=0.5;exitDx=0;exitDy=0;exitPerimeter=0;entryX=0;entryY=0.5;entryDx=0;entryDy=0;fontFamily=Architects Daughter;fontSource=https%3A%2F%2Ffonts.googleapis.com%2Fcss%3Ffamily%3DArchitects%2BDaughter;fontSize=16;startArrow=classic;startFill=1;" edge="1" parent="1" source="-R0mdOg1v83Fvph0Vuq2-23" target="-R0mdOg1v83Fvph0Vuq2-20">
          <mxGeometry relative="1" as="geometry" />
        </mxCell>
        <mxCell id="-R0mdOg1v83Fvph0Vuq2-23" value="Actor" style="shape=umlActor;verticalLabelPosition=bottom;verticalAlign=top;html=1;outlineConnect=0;sketch=1;hachureGap=4;jiggle=2;curveFitting=1;fontFamily=Architects Daughter;fontSource=https%3A%2F%2Ffonts.googleapis.com%2Fcss%3Ffamily%3DArchitects%2BDaughter;fontSize=20;" vertex="1" parent="1">
          <mxGeometry x="-90" y="515" width="30" height="60" as="geometry" />
        </mxCell>
        <mxCell id="-R0mdOg1v83Fvph0Vuq2-27" style="edgeStyle=orthogonalEdgeStyle;rounded=0;sketch=1;hachureGap=4;jiggle=2;curveFitting=1;orthogonalLoop=1;jettySize=auto;html=1;exitX=0.5;exitY=1;exitDx=0;exitDy=0;exitPerimeter=0;entryX=0.5;entryY=0;entryDx=0;entryDy=0;fontFamily=Architects Daughter;fontSource=https%3A%2F%2Ffonts.googleapis.com%2Fcss%3Ffamily%3DArchitects%2BDaughter;fontSize=16;startArrow=classic;startFill=1;" edge="1" parent="1" source="-R0mdOg1v83Fvph0Vuq2-26" target="-R0mdOg1v83Fvph0Vuq2-20">
          <mxGeometry relative="1" as="geometry" />
        </mxCell>
        <mxCell id="-R0mdOg1v83Fvph0Vuq2-26" value="/var/lib/paket/installed-packages.toml" style="shape=note;whiteSpace=wrap;html=1;backgroundOutline=1;darkOpacity=0.05;sketch=1;hachureGap=4;jiggle=2;curveFitting=1;fontFamily=Architects Daughter;fontSource=https%3A%2F%2Ffonts.googleapis.com%2Fcss%3Ffamily%3DArchitects%2BDaughter;fontSize=20;fillColor=#e1d5e7;strokeColor=#9673a6;" vertex="1" parent="1">
          <mxGeometry x="-175" y="330" width="390" height="100" as="geometry" />
        </mxCell>
      </root>
    </mxGraphModel>
  </diagram>
</mxfile>
